<?xml version="1.0" standalone="no"?>
<!DOCTYPE svg PUBLIC "-//W3C//DTD SVG 20010904//EN"
 "http://www.w3.org/TR/2001/REC-SVG-20010904/DTD/svg10.dtd">
<svg version="1.0" xmlns="http://www.w3.org/2000/svg"
 width="268.000000pt" height="268.000000pt" viewBox="0 0 268.000000 268.000000"
 preserveAspectRatio="xMidYMid meet">
<metadata>
Created by potrace 1.14, written by Peter Selinger 2001-2017
</metadata>
<g transform="translate(0.000000,268.000000) scale(0.100000,-0.100000)"
fill="#000000" stroke="none">
<path d="M2190 2115 l0 -515 25 0 25 0 0 515 0 515 -25 0 -25 0 0 -515z"/>
<path d="M2280 2085 l0 -515 35 0 35 0 0 515 0 515 -35 0 -35 0 0 -515z"/>
<path d="M410 2140 l0 -450 50 0 50 0 0 450 0 450 -50 0 -50 0 0 -450z"/>
<path d="M60 2130 l0 -450 65 0 65 0 0 450 0 450 -65 0 -65 0 0 -450z"/>
<path d="M850 2115 l0 -465 110 0 110 0 0 465 0 465 -110 0 -110 0 0 -465z"/>
<path d="M1430 2030 l0 -550 90 0 90 0 0 550 0 550 -90 0 -90 0 0 -550z"/>
<path d="M2100 2085 l0 -495 25 0 25 0 0 495 0 495 -25 0 -25 0 0 -495z"/>
<path d="M2400 2060 l0 -510 35 0 35 0 0 510 0 510 -35 0 -35 0 0 -510z"/>
<path d="M1920 2055 l0 -495 55 0 55 0 0 495 0 495 -55 0 -55 0 0 -495z"/>
<path d="M570 2160 l0 -370 95 0 95 0 0 370 0 370 -95 0 -95 0 0 -370z"/>
<path d="M1170 2070 l0 -460 90 0 90 0 0 460 0 460 -90 0 -90 0 0 -460z"/>
<path d="M2530 2065 l0 -455 35 0 35 0 0 455 0 455 -35 0 -35 0 0 -455z"/>
<path d="M1710 2005 l0 -495 65 0 65 0 0 495 0 495 -65 0 -65 0 0 -495z"/>
<path d="M400 1005 l0 -515 50 0 50 0 0 515 0 515 -50 0 -50 0 0 -515z"/>
<path d="M2360 905 l0 -605 45 0 45 0 0 605 0 605 -45 0 -45 0 0 -605z"/>
<path d="M1340 930 l0 -520 120 0 120 0 0 520 0 520 -120 0 -120 0 0 -520z"/>
<path d="M1630 895 l0 -465 75 0 75 0 0 465 0 465 -75 0 -75 0 0 -465z"/>
</g>
</svg>
